<?xml version="1.0" standalone="no"?>
<!DOCTYPE svg PUBLIC "-//W3C//DTD SVG 20010904//EN"
 "http://www.w3.org/TR/2001/REC-SVG-20010904/DTD/svg10.dtd">
<svg version="1.0" xmlns="http://www.w3.org/2000/svg"
 width="300.000000pt" height="300.000000pt" viewBox="0 0 300.000000 300.000000"
 preserveAspectRatio="xMidYMid meet">
<metadata>
Created by potrace 1.11, written by Peter Selinger 2001-2013
</metadata>
<g transform="translate(0.000000,300.000000) scale(0.100000,-0.100000)"
fill="#000000" stroke="none">
<path d="M202 1633 c3 -347 5 -371 25 -425 66 -176 201 -263 408 -262 193 0
333 80 401 229 38 83 44 146 44 498 l0 327 -130 0 -129 0 -3 -352 c-3 -335 -4
-355 -24 -388 -33 -57 -86 -81 -166 -78 -80 4 -113 24 -145 88 -23 43 -23 51
-23 387 l0 343 -131 0 -130 0 3 -367z"/>
<path d="M1260 1475 l0 -525 130 0 130 0 0 200 0 200 33 0 c31 0 34 -4 140
-200 l109 -200 139 0 c76 0 139 3 139 6 0 4 -52 96 -115 205 -63 109 -115 201
-115 204 0 3 20 14 45 25 63 27 129 91 156 153 35 79 33 193 -4 269 -32 66
-80 112 -153 145 -78 36 -146 43 -401 43 l-233 0 0 -525z m495 299 c59 -28 82
-111 49 -179 -24 -51 -65 -65 -183 -65 l-101 0 0 130 0 130 101 0 c71 0 111
-5 134 -16z"/>
<path d="M2240 1475 l0 -525 295 0 295 0 0 100 0 100 -165 0 -165 0 0 425 0
425 -130 0 -130 0 0 -525z"/>
</g>
</svg>
